# xmcd CD database file
#
# Track frame offsets:
#	150
#	30426
#	46493
#	62570
#	92452
#	113926
#	139744
#	156049
#
# Disc length: 2283 seconds
#
# Revision: 1
# Processed by: cddbd v1.5.1PL2 Copyright (c) Steve Scherf et al.
# Submitted via: jetAudio 5
#
DISCID=5e08e908
DTITLE=Mitch Merrett - Mitch Merrett
DYEAR=1900
DGENRE=
TTITLE0=LA Cool
TTITLE1=The Gunfighter
TTITLE2=Disco Tele
TTITLE3=New Orleans
TTITLE4=Surf Queen
TTITLE5=C-Lo's Choice
TTITLE6=Big Blue Swing
TTITLE7=Chicken Vs. Train
EXTD=
EXTT0=
EXTT1=
EXTT2=
EXTT3=
EXTT4=
EXTT5=
EXTT6=
EXTT7=
PLAYORDER=
